<svg version="1.1" id="Layer_1" xmlns="http://www.w3.org/2000/svg" xmlns:xlink="http://www.w3.org/1999/xlink" x="0px" y="0px"
	 width="100%" viewBox="0 0 1024 1024" enable-background="new 0 0 1024 1024" xml:space="preserve">
<path fill="#000000" opacity="1.000000" stroke="none" 
	d="
M684.043213,412.394745 
	C685.874695,426.557281 681.712830,437.464783 668.815796,443.994263 
	C666.631287,445.100250 666.168396,446.709534 666.173218,448.847504 
	C666.191406,457.012054 666.243896,465.178070 666.105164,473.340515 
	C666.057068,476.167389 667.488464,477.969604 669.283386,479.800934 
	C676.163818,486.820953 682.916321,493.967804 689.871399,500.912292 
	C692.272766,503.309967 693.431213,505.803284 693.373596,509.273193 
	C693.188354,520.434143 693.215332,531.601013 693.348877,542.763428 
	C693.387451,545.986511 692.515503,548.441284 690.169556,550.740662 
	C678.154541,562.517090 666.218445,574.375549 654.377747,586.327209 
	C651.735352,588.994385 650.033142,589.357483 647.132324,586.363403 
	C613.053711,551.189575 578.810181,516.175598 544.650208,481.080414 
	C504.913055,440.255219 465.233917,399.373444 425.456451,358.587585 
	C423.030060,356.099670 422.859039,354.368195 425.469818,352.050049 
	C428.206329,349.620239 430.838501,347.035889 433.246246,344.282898 
	C435.872833,341.279694 437.757782,341.614929 440.479523,344.425018 
	C468.413147,373.265930 496.489624,401.968353 524.488464,430.746216 
	C539.243469,445.911743 553.914734,461.158813 568.651245,476.342407 
	C570.247559,477.987091 571.690491,479.864319 574.018555,480.838684 
	C575.659180,478.935822 575.041016,476.682861 575.047546,474.635193 
	C575.115967,453.140625 575.152527,431.645660 575.079712,410.151184 
	C575.063965,405.494568 575.896912,400.875061 575.279480,396.179535 
	C574.917236,393.424377 574.057739,391.559357 571.334717,390.491547 
	C555.656860,384.343567 549.797546,366.939270 552.125427,354.595032 
	C555.316162,337.675537 567.414978,326.680634 584.095520,326.180756 
	C600.164368,325.699280 613.646790,334.711334 618.072449,350.849091 
	C622.373596,366.532440 615.733215,382.804108 601.441162,389.770721 
	C597.040100,391.916016 595.924438,394.510925 595.927490,399.011780 
	C595.944580,424.162537 595.634399,449.313324 595.570740,474.464447 
	C595.547974,483.454956 595.923706,492.446045 596.066895,501.437683 
	C596.097595,503.367035 596.624695,504.959259 598.006653,506.380737 
	C615.194458,524.059753 632.349426,541.770630 649.523560,559.462952 
	C649.742737,559.688721 650.100891,559.779602 650.970947,560.236023 
	C657.859314,553.636841 665.213196,547.227905 671.734253,539.934937 
	C672.669128,538.889404 672.788269,537.519348 672.787415,536.163635 
	C672.782959,528.998840 672.703857,521.832947 672.807678,514.669739 
	C672.849548,511.781921 671.031067,510.134491 669.298096,508.351837 
	C662.679932,501.543976 656.146484,494.649567 649.379028,487.993134 
	C646.657776,485.316528 645.601929,482.425812 645.673462,478.663727 
	C645.854004,469.169403 645.627869,459.667450 645.799072,450.172791 
	C645.858582,446.869904 645.025391,444.714050 642.029724,442.820679 
	C630.808289,435.728333 626.249573,424.740143 628.793213,412.027100 
	C631.070251,400.646637 639.504883,392.819885 652.152588,390.351166 
	C666.303772,387.588959 679.198059,396.366852 684.043213,412.394745 
z"/>
<path fill="#000000" opacity="1.000000" stroke="none" 
	d="
M456.899353,696.104492 
	C435.348175,706.031738 413.930145,696.650513 407.678223,674.862305 
	C403.393799,659.931091 410.893616,642.648560 424.979919,636.144775 
	C428.853821,634.356201 429.969666,632.145752 429.958679,628.176208 
	C429.864044,594.018005 429.918610,559.859314 429.958588,525.700806 
	C429.961395,523.288696 429.613708,521.165710 427.787903,519.321533 
	C410.560883,501.921326 393.386322,484.469238 376.179321,467.049194 
	C375.618378,466.481293 374.872559,466.095947 373.450928,465.082092 
	C366.829620,471.869690 360.213287,478.612213 353.654816,485.410522 
	C352.404846,486.706177 352.546692,488.519012 352.524963,490.169312 
	C352.439301,496.666138 352.494537,503.165680 352.337585,509.660339 
	C352.278656,512.098755 353.452148,513.705688 355.023407,515.292969 
	C361.937775,522.277893 368.708099,529.409424 375.751495,536.260742 
	C378.823120,539.248657 380.377441,542.362427 380.255951,546.780151 
	C379.985809,556.603027 380.295624,566.440491 380.173859,576.269592 
	C380.135071,579.399475 380.974792,581.329041 383.904205,583.021851 
	C395.368500,589.646912 400.293182,601.770569 397.166992,614.589600 
	C394.208588,626.720886 383.627014,635.353027 370.778351,636.116638 
	C359.122864,636.809326 346.643555,628.210327 343.046173,617.007446 
	C338.972229,604.320496 343.664856,589.866455 354.541229,583.774414 
	C358.709930,581.439453 359.987030,578.784546 359.801910,574.315186 
	C359.505646,567.163147 359.647186,559.986450 359.812103,552.824951 
	C359.878723,549.931091 358.980743,547.788513 356.915253,545.759399 
	C349.785706,538.755188 342.837860,531.566406 335.746704,524.522522 
	C333.354370,522.146179 332.406647,519.587891 332.495605,516.088623 
	C332.787750,504.598267 332.670044,493.096680 332.637299,481.599609 
	C332.630432,479.189636 332.908386,477.103241 334.783081,475.250824 
	C347.345795,462.837463 359.821991,450.336517 372.346222,437.884094 
	C372.911926,437.321655 373.670380,436.953094 374.193817,436.593903 
	C376.278168,436.984009 377.129028,438.556610 378.260986,439.717407 
	C431.531860,494.345673 484.783112,548.993103 538.040100,603.634949 
	C558.505676,624.632751 578.928162,645.673218 599.505920,666.560608 
	C602.558228,669.658875 603.589966,671.860840 599.507507,674.795654 
	C595.647949,677.570312 593.055115,683.736267 588.574951,683.436951 
	C584.513855,683.165649 581.800720,677.546448 578.562378,674.232361 
	C537.236267,631.938416 495.970642,589.585510 454.676849,547.260071 
	C453.889984,546.453491 452.947510,545.798889 452.105347,545.096497 
	C449.872559,546.125610 450.400574,547.985779 450.398346,549.527283 
	C450.359772,576.187561 450.381714,602.847900 450.330963,629.508118 
	C450.326111,632.056946 450.757202,633.892517 453.511139,634.960632 
	C466.602417,640.038208 473.058228,650.380066 474.103973,663.737000 
	C475.190918,677.619934 469.494446,688.678955 456.899353,696.104492 
z"/>
<path fill="#000000" opacity="1.000000" stroke="none" 
	d="
M405.412018,388.589478 
	C473.483643,458.112457 541.304077,527.386414 609.128967,596.656128 
	C621.014465,608.794861 633.008118,620.829773 644.751099,633.104675 
	C647.718384,636.206421 649.996460,637.123474 654.439148,635.416138 
	C671.832520,628.731567 690.148865,636.816284 697.034363,653.600586 
	C704.033752,670.662354 696.975647,689.418762 680.354370,696.971008 
	C667.124390,702.982422 654.554565,701.062134 643.428284,691.919189 
	C633.531799,683.786682 629.980225,669.160583 634.372803,656.343079 
	C635.310669,653.606140 635.101013,651.934448 632.986877,649.815308 
	C564.995972,581.663452 498.194183,512.344482 430.765900,443.639893 
	C413.967651,426.523712 397.158844,409.416595 380.532867,392.134094 
	C377.918091,389.416107 375.935364,389.075989 372.460297,390.455597 
	C358.917938,395.832153 346.516846,393.221832 335.971832,383.410736 
	C326.427277,374.530426 323.570496,358.728821 328.731140,346.448883 
	C334.385803,332.993225 345.116852,326.447784 359.200897,325.928650 
	C381.796448,325.095764 398.072083,345.568512 392.443054,367.507568 
	C391.206421,372.327362 391.759003,375.630585 395.602234,378.828339 
	C399.043976,381.692078 401.994873,385.145660 405.412018,388.589478 
z"/>
</svg>