<svg version="1.1" id="Layer_1" xmlns="http://www.w3.org/2000/svg" xmlns:xlink="http://www.w3.org/1999/xlink" x="0px" y="0px"
	 width="100%" viewBox="0 0 1024 1024" enable-background="new 0 0 1024 1024" xml:space="preserve">
<path fill="#FEFFFF" opacity="1.000000" stroke="none" 
	d="
M947.000000,1025.000000 
	C631.333313,1025.000000 316.166656,1025.000000 1.000000,1025.000000 
	C1.000000,683.666687 1.000000,342.333344 1.000000,1.000000 
	C342.333344,1.000000 683.666687,1.000000 1025.000000,1.000000 
	C1025.000000,342.333344 1025.000000,683.666687 1025.000000,1025.000000 
	C999.166687,1025.000000 973.333313,1025.000000 947.000000,1025.000000 
M370.588745,470.266083 
	C366.113556,470.266083 361.638367,470.266083 356.929199,470.266083 
	C356.929199,494.420929 356.929199,518.307678 356.929199,542.186035 
	C362.373474,542.186035 367.485596,542.186035 373.144836,542.186035 
	C373.144836,527.429443 373.144836,512.920898 373.144836,497.270416 
	C375.261230,499.897583 376.610779,501.544098 377.929718,503.214752 
	C387.423187,515.239685 396.890808,527.285156 406.428894,539.274597 
	C407.418121,540.518066 408.746429,542.253662 410.033752,542.360596 
	C414.583801,542.738586 419.184418,542.507751 423.575592,542.507751 
	C423.575592,518.024414 423.575592,494.272064 423.575592,470.448792 
	C418.149109,470.448792 413.109772,470.448792 407.378479,470.448792 
	C407.378479,485.260803 407.378479,499.756042 407.378479,515.494568 
	C394.782837,499.738525 383.079987,485.099243 370.588745,470.266083 
M221.447952,536.497925 
	C221.452103,539.163635 221.422302,541.829956 221.467804,544.494934 
	C221.551804,549.415527 221.773300,553.777710 216.784195,557.524658 
	C211.811005,561.259644 212.790405,569.402771 217.395172,573.501709 
	C222.116837,577.704712 229.266464,577.376282 233.615250,572.756592 
	C237.984192,568.115479 238.146088,560.577942 232.956726,556.787903 
	C229.056046,553.939026 228.626221,550.769165 228.733597,546.680420 
	C228.895370,540.520813 228.735840,534.353210 228.759583,528.189209 
	C228.764801,526.835327 228.966049,525.482300 229.139252,523.370178 
	C244.791138,539.816223 259.774689,555.559998 274.984375,571.541382 
	C276.961487,569.992737 278.474762,568.807434 280.521759,567.204102 
	C253.999146,539.506104 227.804276,512.150330 201.301315,484.472870 
	C198.393311,487.638519 195.773071,490.616028 193.019592,493.464722 
	C185.031586,501.728882 185.037292,511.832947 193.100723,519.886780 
	C199.118973,525.897888 199.353088,531.751953 193.837143,538.301086 
	C190.371170,542.416260 190.616592,548.420593 194.390533,551.840515 
	C198.214584,555.305847 204.827072,554.847412 208.374435,550.871033 
	C211.929535,546.885986 211.278809,541.604370 207.434647,537.415405 
	C205.892151,535.734497 204.661362,532.872986 204.840805,530.675659 
	C205.361313,524.302124 203.347000,519.523315 198.578415,515.274841 
	C196.638367,513.546387 195.593353,510.425751 194.919205,507.742981 
	C193.416351,501.762634 197.306839,498.239746 201.730408,494.861816 
	C203.851685,497.163086 205.664108,499.911774 208.162140,501.705811 
	C219.940643,510.165009 223.595230,521.650635 221.447952,536.497925 
M303.625153,501.470520 
	C300.684540,496.925018 301.173340,491.136078 304.770813,487.901550 
	C308.905090,484.184418 309.245605,478.132996 305.549255,474.066437 
	C301.809906,469.952454 295.150513,469.733093 291.206085,473.593872 
	C287.249146,477.467010 286.989044,483.782196 291.437927,487.313263 
	C294.415314,489.676361 295.196625,492.207153 294.681335,495.440735 
	C293.917877,500.231476 296.077057,503.458221 299.231354,506.799042 
	C301.434601,509.132629 303.116241,512.409302 303.894043,515.546570 
	C305.646423,522.614319 298.690491,524.632385 295.677246,529.110962 
	C289.806458,523.279541 284.167694,517.859070 278.792725,512.188599 
	C277.709290,511.045502 277.168365,508.957794 277.155975,507.299805 
	C277.076385,496.638397 277.091980,485.971893 277.399323,475.316376 
	C277.450470,473.542358 278.674500,471.340179 280.057526,470.151031 
	C284.648560,466.203339 286.354126,461.667267 284.583008,456.467041 
	C282.989380,451.788086 278.623108,448.836456 273.382111,448.895264 
	C268.373260,448.951447 264.075439,452.150452 262.530884,456.972107 
	C260.899506,462.064880 262.766388,466.897095 267.586090,470.414673 
	C268.550781,471.118683 269.937805,472.182617 269.954620,473.102081 
	C270.128754,482.621979 270.061676,492.146240 270.061676,502.479950 
	C253.934631,485.907227 238.557953,470.105591 222.917419,454.032837 
	C221.246582,455.899689 219.984985,457.309326 218.477997,458.993134 
	C244.453949,485.921417 270.046875,512.452637 295.525604,538.865479 
	C300.752197,533.779724 305.301788,529.407410 309.764984,524.948547 
	C310.402344,524.311829 310.943726,523.270752 310.983337,522.392273 
	C311.328125,514.746704 312.171600,506.885406 303.625153,501.470520 
M609.815552,501.808685 
	C608.292542,496.438080 605.437744,491.924805 600.204895,489.711304 
	C586.839294,484.057709 574.035278,486.554474 561.107056,492.572266 
	C562.966553,496.834412 564.583374,500.540405 566.280518,504.430573 
	C572.677673,500.511353 579.072998,499.070099 585.905029,500.039429 
	C591.537292,500.838501 594.066223,503.982025 593.629761,509.780914 
	C590.561890,509.780914 587.434204,509.655121 584.320618,509.810547 
	C579.682556,510.042023 574.958984,510.002899 570.443298,510.921906 
	C562.668457,512.504150 558.281982,518.031555 557.910095,525.619751 
	C557.544800,533.072571 561.531677,539.478943 568.708984,541.807617 
	C577.320312,544.601440 585.759583,544.440613 593.332703,538.536865 
	C593.672974,538.271606 594.204041,538.250977 594.707031,538.097900 
	C594.962158,539.615845 595.193909,540.994751 595.411743,542.290771 
	C600.673279,542.290771 605.591675,542.290771 609.974792,542.290771 
	C609.974792,528.844360 609.974792,515.731445 609.815552,501.808685 
M436.969391,506.553802 
	C433.399384,521.984924 439.643677,535.218262 453.038879,540.760864 
	C465.000488,545.710388 483.638641,543.194214 488.753387,533.592346 
	C486.102661,530.588257 483.599579,527.751526 481.136353,524.959961 
	C467.844208,533.415161 454.372131,531.039734 453.104675,519.817261 
	C466.408783,519.817261 479.674988,519.817261 492.864594,519.817261 
	C495.351868,505.984253 489.038269,493.554504 477.305267,488.670990 
	C461.105835,481.928436 443.462830,489.441040 436.969391,506.553802 
M533.814026,537.848206 
	C535.369568,539.422668 536.795166,542.164490 538.504700,542.354675 
	C543.825012,542.946716 549.252869,542.571594 555.412964,542.571594 
	C548.298462,532.679688 541.734009,523.552551 535.085571,514.308655 
	C541.374207,505.302368 547.515442,496.507080 554.026062,487.182831 
	C549.003784,487.182831 544.695374,486.870422 540.468445,487.321686 
	C538.512329,487.530518 536.197205,488.804596 534.946411,490.333344 
	C531.631409,494.385040 528.807617,498.838654 525.611572,503.383850 
	C522.311401,498.511169 519.401001,494.059387 516.300293,489.744324 
	C515.524780,488.665100 514.170837,487.357147 513.024841,487.299225 
	C507.831512,487.036865 502.617523,487.184448 496.591919,487.184448 
	C503.247894,496.857208 509.341156,505.712250 515.488831,514.646301 
	C508.882233,523.840210 502.372833,532.898926 495.415466,542.581055 
	C500.620728,542.581055 504.628082,542.307434 508.579193,542.661499 
	C512.205322,542.986450 514.425476,541.648376 516.328674,538.685181 
	C519.049438,534.449036 522.134460,530.446838 525.455444,525.796509 
	C528.507019,530.195923 530.953369,533.722778 533.814026,537.848206 
M263.508545,522.968628 
	C245.742645,504.719360 228.007645,486.439758 210.166977,468.263855 
	C208.209900,466.269989 207.528625,464.627441 208.285568,461.751740 
	C209.443604,457.352142 206.553299,452.264160 202.436432,450.078400 
	C197.945312,447.693878 192.234161,448.529144 188.573853,452.105774 
	C184.929962,455.666351 184.042679,460.860260 186.299637,465.418640 
	C188.386703,469.633911 193.502853,472.941559 197.789932,471.451019 
	C202.143997,469.937164 204.167969,472.002197 206.667770,474.567810 
	C233.496262,502.102509 260.352417,529.610352 287.257355,557.070312 
	C289.540161,559.400269 290.973572,561.347046 290.413116,565.157715 
	C289.422607,571.892761 295.234253,577.311218 302.069702,577.040039 
	C308.945557,576.767273 313.864075,571.085388 313.076202,564.325195 
	C312.314697,557.791199 305.906128,552.310364 300.179108,554.324463 
	C296.019073,555.787476 293.972198,554.029114 291.629791,551.646667 
	C282.409729,542.269104 273.215851,532.865845 263.508545,522.968628 
M716.987671,478.724396 
	C716.760010,477.521179 716.906372,475.547821 716.249329,475.228699 
	C703.734070,469.150116 690.821289,467.121216 677.837463,473.420349 
	C671.100952,476.688599 668.133118,482.912811 668.310242,490.308228 
	C668.488281,497.741791 672.475586,502.809753 679.298828,505.517181 
	C682.841431,506.922913 686.548157,507.917023 690.185486,509.082153 
	C695.406799,510.754669 700.725586,512.173462 705.827942,514.151489 
	C710.181763,515.839355 712.869873,519.239136 712.778320,524.140015 
	C712.684692,529.155090 710.076355,533.170227 705.436279,534.393860 
	C700.087219,535.804443 694.142700,537.105957 688.875061,536.150085 
	C681.788391,534.864014 675.101746,531.373718 667.955200,528.722656 
	C667.477539,529.634460 666.569214,531.368408 665.696472,533.034546 
	C676.595398,543.589233 697.260559,546.801331 710.106323,539.980469 
	C716.657288,536.502014 720.271423,531.141846 720.222656,523.489136 
	C720.175476,516.077515 716.287292,511.197479 709.932861,508.327118 
	C705.566956,506.354950 700.815430,505.245361 696.260071,503.681061 
	C691.242310,501.957977 686.018616,500.622284 681.309021,498.268646 
	C675.568237,495.399689 673.702637,487.591431 677.840942,482.914795 
	C680.285522,480.152283 684.197693,477.971802 687.825073,477.111359 
	C697.468018,474.824127 706.551636,477.598022 715.285034,482.225647 
	C715.822449,481.135773 716.250427,480.267761 716.987671,478.724396 
M753.818542,532.730164 
	C747.770813,519.231873 741.501343,505.826324 735.794128,492.185486 
	C733.764160,487.333557 731.014832,486.756775 726.362427,488.279266 
	C734.256775,505.626526 742.057312,522.686829 749.744629,539.798035 
	C750.436523,541.338196 751.021667,543.383423 750.596497,544.896179 
	C747.151855,557.152649 740.485718,560.224976 728.644592,554.991821 
	C727.724487,556.414673 726.774902,557.883118 725.852905,559.308960 
	C734.800598,567.323303 747.355591,565.345886 752.967773,554.567810 
	C758.176514,544.564331 762.380371,534.034668 766.957092,523.705872 
	C772.187012,511.902924 777.339966,500.065948 782.667114,487.923096 
	C778.032104,486.809387 775.369873,487.385223 773.508667,492.115509 
	C768.338867,505.254791 762.586731,518.166321 756.943176,531.114807 
	C756.512085,532.103882 755.127075,532.677246 753.818542,532.730164 
M826.807861,537.274231 
	C828.057800,533.768677 830.194519,530.304810 830.361938,526.748291 
	C830.656189,520.494873 826.814758,516.435791 819.537964,514.204285 
	C813.667175,512.403809 807.621216,511.179352 801.730103,509.438324 
	C798.302429,508.425323 795.954956,506.142975 795.933777,502.221710 
	C795.911804,498.154999 798.196716,495.294861 801.804321,494.503784 
	C805.929321,493.599182 810.368652,493.261383 814.552063,493.734070 
	C818.718262,494.204834 822.736450,495.985687 826.972961,497.237396 
	C827.676514,495.492279 828.333801,493.861847 829.070679,492.034149 
	C819.848083,487.304657 810.573181,485.571564 800.788818,488.187927 
	C793.354004,490.176025 788.980774,495.915344 789.036987,503.032928 
	C789.089355,509.662994 792.705078,513.861145 800.607056,516.035828 
	C806.051758,517.534241 811.622070,518.580200 817.055298,520.114929 
	C820.828308,521.180603 823.675537,523.560852 823.639221,527.862488 
	C823.601868,532.287231 820.840088,534.847229 816.811157,535.997314 
	C814.757568,536.583435 812.580139,536.906006 810.443359,536.999695 
	C802.938171,537.328430 796.171814,535.047913 789.981934,530.270630 
	C788.912476,532.446411 788.063721,534.173035 787.255188,535.817932 
	C797.888550,545.088318 816.201294,545.905151 826.807861,537.274231 
M650.317017,506.952362 
	C641.610413,506.952362 632.903870,506.952362 624.288452,506.952362 
	C624.288452,511.469177 624.288452,515.223022 624.288452,519.062012 
	C634.258606,519.062012 643.970154,519.062012 653.998413,519.062012 
	C653.998413,515.622192 654.198059,512.480957 653.873657,509.394806 
	C653.779480,508.498871 652.185364,507.760590 650.317017,506.952362 
z"/>
<path fill="#113160" opacity="1.000000" stroke="none" 
	d="
M370.982941,470.363037 
	C383.079987,485.099243 394.782837,499.738525 407.378479,515.494568 
	C407.378479,499.756042 407.378479,485.260803 407.378479,470.448792 
	C413.109772,470.448792 418.149109,470.448792 423.575592,470.448792 
	C423.575592,494.272064 423.575592,518.024414 423.575592,542.507751 
	C419.184418,542.507751 414.583801,542.738586 410.033752,542.360596 
	C408.746429,542.253662 407.418121,540.518066 406.428894,539.274597 
	C396.890808,527.285156 387.423187,515.239685 377.929718,503.214752 
	C376.610779,501.544098 375.261230,499.897583 373.144836,497.270416 
	C373.144836,512.920898 373.144836,527.429443 373.144836,542.186035 
	C367.485596,542.186035 362.373474,542.186035 356.929199,542.186035 
	C356.929199,518.307678 356.929199,494.420929 356.929199,470.266083 
	C361.638367,470.266083 366.113556,470.266083 370.982941,470.363037 
z"/>
<path fill="#1DC0CA" opacity="1.000000" stroke="none" 
	d="
M221.447235,535.998291 
	C223.595230,521.650635 219.940643,510.165009 208.162140,501.705811 
	C205.664108,499.911774 203.851685,497.163086 201.730408,494.861816 
	C197.306839,498.239746 193.416351,501.762634 194.919205,507.742981 
	C195.593353,510.425751 196.638367,513.546387 198.578415,515.274841 
	C203.347000,519.523315 205.361313,524.302124 204.840805,530.675659 
	C204.661362,532.872986 205.892151,535.734497 207.434647,537.415405 
	C211.278809,541.604370 211.929535,546.885986 208.374435,550.871033 
	C204.827072,554.847412 198.214584,555.305847 194.390533,551.840515 
	C190.616592,548.420593 190.371170,542.416260 193.837143,538.301086 
	C199.353088,531.751953 199.118973,525.897888 193.100723,519.886780 
	C185.037292,511.832947 185.031586,501.728882 193.019592,493.464722 
	C195.773071,490.616028 198.393311,487.638519 201.301315,484.472870 
	C227.804276,512.150330 253.999146,539.506104 280.521759,567.204102 
	C278.474762,568.807434 276.961487,569.992737 274.984375,571.541382 
	C259.774689,555.559998 244.791138,539.816223 229.139252,523.370178 
	C228.966049,525.482300 228.764801,526.835327 228.759583,528.189209 
	C228.735840,534.353210 228.895370,540.520813 228.733597,546.680420 
	C228.626221,550.769165 229.056046,553.939026 232.956726,556.787903 
	C238.146088,560.577942 237.984192,568.115479 233.615250,572.756592 
	C229.266464,577.376282 222.116837,577.704712 217.395172,573.501709 
	C212.790405,569.402771 211.811005,561.259644 216.784195,557.524658 
	C221.773300,553.777710 221.551804,549.415527 221.467804,544.494934 
	C221.422302,541.829956 221.452103,539.163635 221.447235,535.998291 
z"/>
<path fill="#1CBEC7" opacity="1.000000" stroke="none" 
	d="
M303.894562,501.746826 
	C312.171600,506.885406 311.328125,514.746704 310.983337,522.392273 
	C310.943726,523.270752 310.402344,524.311829 309.764984,524.948547 
	C305.301788,529.407410 300.752197,533.779724 295.525604,538.865479 
	C270.046875,512.452637 244.453949,485.921417 218.477997,458.993134 
	C219.984985,457.309326 221.246582,455.899689 222.917419,454.032837 
	C238.557953,470.105591 253.934631,485.907227 270.061676,502.479950 
	C270.061676,492.146240 270.128754,482.621979 269.954620,473.102081 
	C269.937805,472.182617 268.550781,471.118683 267.586090,470.414673 
	C262.766388,466.897095 260.899506,462.064880 262.530884,456.972107 
	C264.075439,452.150452 268.373260,448.951447 273.382111,448.895264 
	C278.623108,448.836456 282.989380,451.788086 284.583008,456.467041 
	C286.354126,461.667267 284.648560,466.203339 280.057526,470.151031 
	C278.674500,471.340179 277.450470,473.542358 277.399323,475.316376 
	C277.091980,485.971893 277.076385,496.638397 277.155975,507.299805 
	C277.168365,508.957794 277.709290,511.045502 278.792725,512.188599 
	C284.167694,517.859070 289.806458,523.279541 295.677246,529.110962 
	C298.690491,524.632385 305.646423,522.614319 303.894043,515.546570 
	C303.116241,512.409302 301.434601,509.132629 299.231354,506.799042 
	C296.077057,503.458221 293.917877,500.231476 294.681335,495.440735 
	C295.196625,492.207153 294.415314,489.676361 291.437927,487.313263 
	C286.989044,483.782196 287.249146,477.467010 291.206085,473.593872 
	C295.150513,469.733093 301.809906,469.952454 305.549255,474.066437 
	C309.245605,478.132996 308.905090,484.184418 304.770813,487.901550 
	C301.173340,491.136078 300.684540,496.925018 303.894562,501.746826 
z"/>
<path fill="#143463" opacity="1.000000" stroke="none" 
	d="
M609.895142,502.213623 
	C609.974792,515.731445 609.974792,528.844360 609.974792,542.290771 
	C605.591675,542.290771 600.673279,542.290771 595.411743,542.290771 
	C595.193909,540.994751 594.962158,539.615845 594.707031,538.097900 
	C594.204041,538.250977 593.672974,538.271606 593.332703,538.536865 
	C585.759583,544.440613 577.320312,544.601440 568.708984,541.807617 
	C561.531677,539.478943 557.544800,533.072571 557.910095,525.619751 
	C558.281982,518.031555 562.668457,512.504150 570.443298,510.921906 
	C574.958984,510.002899 579.682556,510.042023 584.320618,509.810547 
	C587.434204,509.655121 590.561890,509.780914 593.629761,509.780914 
	C594.066223,503.982025 591.537292,500.838501 585.905029,500.039429 
	C579.072998,499.070099 572.677673,500.511353 566.280518,504.430573 
	C564.583374,500.540405 562.966553,496.834412 561.107056,492.572266 
	C574.035278,486.554474 586.839294,484.057709 600.204895,489.711304 
	C605.437744,491.924805 608.292542,496.438080 609.895142,502.213623 
M587.373108,531.283752 
	C593.863342,528.191956 595.060181,525.893860 593.426636,518.898682 
	C588.437317,519.216797 583.225586,519.001587 578.322266,520.128479 
	C576.331360,520.585999 573.683838,524.015503 573.760071,525.999573 
	C573.836304,527.984436 576.613281,530.631165 578.809143,531.554688 
	C581.026489,532.487244 583.983582,531.660645 587.373108,531.283752 
z"/>
<path fill="#143463" opacity="1.000000" stroke="none" 
	d="
M437.052551,506.164764 
	C443.462830,489.441040 461.105835,481.928436 477.305267,488.670990 
	C489.038269,493.554504 495.351868,505.984253 492.864594,519.817261 
	C479.674988,519.817261 466.408783,519.817261 453.104675,519.817261 
	C454.372131,531.039734 467.844208,533.415161 481.136353,524.959961 
	C483.599579,527.751526 486.102661,530.588257 488.753387,533.592346 
	C483.638641,543.194214 465.000488,545.710388 453.038879,540.760864 
	C439.643677,535.218262 433.399384,521.984924 437.052551,506.164764 
M459.640503,510.079987 
	C465.683960,510.079987 471.727417,510.079987 477.898682,510.079987 
	C476.217499,502.310425 471.419922,498.597198 464.344299,499.045685 
	C457.640991,499.470581 453.166077,503.657013 452.732056,510.085754 
	C454.725525,510.085754 456.707520,510.085754 459.640503,510.079987 
z"/>
<path fill="#143463" opacity="1.000000" stroke="none" 
	d="
M533.606873,537.548889 
	C530.953369,533.722778 528.507019,530.195923 525.455444,525.796509 
	C522.134460,530.446838 519.049438,534.449036 516.328674,538.685181 
	C514.425476,541.648376 512.205322,542.986450 508.579193,542.661499 
	C504.628082,542.307434 500.620728,542.581055 495.415466,542.581055 
	C502.372833,532.898926 508.882233,523.840210 515.488831,514.646301 
	C509.341156,505.712250 503.247894,496.857208 496.591919,487.184448 
	C502.617523,487.184448 507.831512,487.036865 513.024841,487.299225 
	C514.170837,487.357147 515.524780,488.665100 516.300293,489.744324 
	C519.401001,494.059387 522.311401,498.511169 525.611572,503.383850 
	C528.807617,498.838654 531.631409,494.385040 534.946411,490.333344 
	C536.197205,488.804596 538.512329,487.530518 540.468445,487.321686 
	C544.695374,486.870422 549.003784,487.182831 554.026062,487.182831 
	C547.515442,496.507080 541.374207,505.302368 535.085571,514.308655 
	C541.734009,523.552551 548.298462,532.679688 555.412964,542.571594 
	C549.252869,542.571594 543.825012,542.946716 538.504700,542.354675 
	C536.795166,542.164490 535.369568,539.422668 533.606873,537.548889 
z"/>
<path fill="#1DC0CA" opacity="1.000000" stroke="none" 
	d="
M263.760376,523.220337 
	C273.215851,532.865845 282.409729,542.269104 291.629791,551.646667 
	C293.972198,554.029114 296.019073,555.787476 300.179108,554.324463 
	C305.906128,552.310364 312.314697,557.791199 313.076202,564.325195 
	C313.864075,571.085388 308.945557,576.767273 302.069702,577.040039 
	C295.234253,577.311218 289.422607,571.892761 290.413116,565.157715 
	C290.973572,561.347046 289.540161,559.400269 287.257355,557.070312 
	C260.352417,529.610352 233.496262,502.102509 206.667770,474.567810 
	C204.167969,472.002197 202.143997,469.937164 197.789932,471.451019 
	C193.502853,472.941559 188.386703,469.633911 186.299637,465.418640 
	C184.042679,460.860260 184.929962,455.666351 188.573853,452.105774 
	C192.234161,448.529144 197.945312,447.693878 202.436432,450.078400 
	C206.553299,452.264160 209.443604,457.352142 208.285568,461.751740 
	C207.528625,464.627441 208.209900,466.269989 210.166977,468.263855 
	C228.007645,486.439758 245.742645,504.719360 263.760376,523.220337 
z"/>
<path fill="#1A3D69" opacity="1.000000" stroke="none" 
	d="
M716.833008,479.062073 
	C716.250427,480.267761 715.822449,481.135773 715.285034,482.225647 
	C706.551636,477.598022 697.468018,474.824127 687.825073,477.111359 
	C684.197693,477.971802 680.285522,480.152283 677.840942,482.914795 
	C673.702637,487.591431 675.568237,495.399689 681.309021,498.268646 
	C686.018616,500.622284 691.242310,501.957977 696.260071,503.681061 
	C700.815430,505.245361 705.566956,506.354950 709.932861,508.327118 
	C716.287292,511.197479 720.175476,516.077515 720.222656,523.489136 
	C720.271423,531.141846 716.657288,536.502014 710.106323,539.980469 
	C697.260559,546.801331 676.595398,543.589233 665.696472,533.034546 
	C666.569214,531.368408 667.477539,529.634460 667.955200,528.722656 
	C675.101746,531.373718 681.788391,534.864014 688.875061,536.150085 
	C694.142700,537.105957 700.087219,535.804443 705.436279,534.393860 
	C710.076355,533.170227 712.684692,529.155090 712.778320,524.140015 
	C712.869873,519.239136 710.181763,515.839355 705.827942,514.151489 
	C700.725586,512.173462 695.406799,510.754669 690.185486,509.082153 
	C686.548157,507.917023 682.841431,506.922913 679.298828,505.517181 
	C672.475586,502.809753 668.488281,497.741791 668.310242,490.308228 
	C668.133118,482.912811 671.100952,476.688599 677.837463,473.420349 
	C690.821289,467.121216 703.734070,469.150116 716.249329,475.228699 
	C716.906372,475.547821 716.760010,477.521179 716.833008,479.062073 
z"/>
<path fill="#1A3D69" opacity="1.000000" stroke="none" 
	d="
M754.002014,533.087036 
	C755.127075,532.677246 756.512085,532.103882 756.943176,531.114807 
	C762.586731,518.166321 768.338867,505.254791 773.508667,492.115509 
	C775.369873,487.385223 778.032104,486.809387 782.667114,487.923096 
	C777.339966,500.065948 772.187012,511.902924 766.957092,523.705872 
	C762.380371,534.034668 758.176514,544.564331 752.967773,554.567810 
	C747.355591,565.345886 734.800598,567.323303 725.852905,559.308960 
	C726.774902,557.883118 727.724487,556.414673 728.644592,554.991821 
	C740.485718,560.224976 747.151855,557.152649 750.596497,544.896179 
	C751.021667,543.383423 750.436523,541.338196 749.744629,539.798035 
	C742.057312,522.686829 734.256775,505.626526 726.362427,488.279266 
	C731.014832,486.756775 733.764160,487.333557 735.794128,492.185486 
	C741.501343,505.826324 747.770813,519.231873 754.002014,533.087036 
z"/>
<path fill="#1A3D69" opacity="1.000000" stroke="none" 
	d="
M826.548340,537.525269 
	C816.201294,545.905151 797.888550,545.088318 787.255188,535.817932 
	C788.063721,534.173035 788.912476,532.446411 789.981934,530.270630 
	C796.171814,535.047913 802.938171,537.328430 810.443359,536.999695 
	C812.580139,536.906006 814.757568,536.583435 816.811157,535.997314 
	C820.840088,534.847229 823.601868,532.287231 823.639221,527.862488 
	C823.675537,523.560852 820.828308,521.180603 817.055298,520.114929 
	C811.622070,518.580200 806.051758,517.534241 800.607056,516.035828 
	C792.705078,513.861145 789.089355,509.662994 789.036987,503.032928 
	C788.980774,495.915344 793.354004,490.176025 800.788818,488.187927 
	C810.573181,485.571564 819.848083,487.304657 829.070679,492.034149 
	C828.333801,493.861847 827.676514,495.492279 826.972961,497.237396 
	C822.736450,495.985687 818.718262,494.204834 814.552063,493.734070 
	C810.368652,493.261383 805.929321,493.599182 801.804321,494.503784 
	C798.196716,495.294861 795.911804,498.154999 795.933777,502.221710 
	C795.954956,506.142975 798.302429,508.425323 801.730103,509.438324 
	C807.621216,511.179352 813.667175,512.403809 819.537964,514.204285 
	C826.814758,516.435791 830.656189,520.494873 830.361938,526.748291 
	C830.194519,530.304810 828.057800,533.768677 826.548340,537.525269 
z"/>
<path fill="#143463" opacity="1.000000" stroke="none" 
	d="
M650.797974,506.951202 
	C652.185364,507.760590 653.779480,508.498871 653.873657,509.394806 
	C654.198059,512.480957 653.998413,515.622192 653.998413,519.062012 
	C643.970154,519.062012 634.258606,519.062012 624.288452,519.062012 
	C624.288452,515.223022 624.288452,511.469177 624.288452,506.952362 
	C632.903870,506.952362 641.610413,506.952362 650.797974,506.951202 
z"/>
<path fill="#FEFFFF" opacity="1.000000" stroke="none" 
	d="
M586.994873,531.444214 
	C583.983582,531.660645 581.026489,532.487244 578.809143,531.554688 
	C576.613281,530.631165 573.836304,527.984436 573.760071,525.999573 
	C573.683838,524.015503 576.331360,520.585999 578.322266,520.128479 
	C583.225586,519.001587 588.437317,519.216797 593.426636,518.898682 
	C595.060181,525.893860 593.863342,528.191956 586.994873,531.444214 
z"/>
<path fill="#FEFFFF" opacity="1.000000" stroke="none" 
	d="
M459.165009,510.082886 
	C456.707520,510.085754 454.725525,510.085754 452.732056,510.085754 
	C453.166077,503.657013 457.640991,499.470581 464.344299,499.045685 
	C471.419922,498.597198 476.217499,502.310425 477.898682,510.079987 
	C471.727417,510.079987 465.683960,510.079987 459.165009,510.082886 
z"/>
</svg>