<svg version="1.1" id="Layer_1" xmlns="http://www.w3.org/2000/svg" xmlns:xlink="http://www.w3.org/1999/xlink" x="0px" y="0px"
	 width="100%" viewBox="0 0 1024 1024" enable-background="new 0 0 1024 1024" xml:space="preserve">
<path fill="#030303" opacity="1.000000" stroke="none" 
	d="
M947.000000,1025.000000 
	C631.333313,1025.000000 316.166656,1025.000000 1.000000,1025.000000 
	C1.000000,683.666687 1.000000,342.333344 1.000000,1.000000 
	C342.333344,1.000000 683.666687,1.000000 1025.000000,1.000000 
	C1025.000000,342.333344 1025.000000,683.666687 1025.000000,1025.000000 
	C999.166687,1025.000000 973.333313,1025.000000 947.000000,1025.000000 
M423.968567,521.499878 
	C423.968567,504.443909 423.968567,487.387909 423.968567,470.289154 
	C418.120056,470.289154 413.145569,470.289154 407.404541,470.289154 
	C407.404541,485.027283 407.404541,499.649628 407.404541,515.613953 
	C405.434143,513.150269 404.419464,511.899170 403.423401,510.633392 
	C393.648407,498.212219 383.920166,485.753662 374.042969,473.414337 
	C372.932983,472.027679 371.060486,470.599121 369.411346,470.425262 
	C365.338715,469.996002 361.190430,470.284515 356.935913,470.284515 
	C356.935913,494.594849 356.935913,518.481873 356.935913,542.296753 
	C362.424835,542.296753 367.536194,542.296753 373.083252,542.296753 
	C373.083252,527.504089 373.083252,512.992737 373.083252,497.521088 
	C374.856445,499.683990 375.995148,501.039734 377.098358,502.423859 
	C386.952026,514.787170 396.776764,527.173767 406.684387,539.493713 
	C407.659241,540.705994 409.070221,542.271423 410.384399,542.378601 
	C414.809967,542.739746 419.283203,542.515991 423.971222,542.515991 
	C423.971222,535.461243 423.971222,528.980530 423.968567,521.499878 
M215.205109,558.813843 
	C214.646240,560.370361 213.850845,561.885803 213.572296,563.491028 
	C212.690109,568.574707 215.631866,573.514221 220.508453,575.476807 
	C225.617203,577.532898 231.784531,575.778198 234.780838,571.416138 
	C237.742081,567.105103 237.802307,559.894897 233.498062,557.349915 
	C228.062866,554.136108 228.668823,549.768372 228.676483,545.051636 
	C228.685944,539.222351 228.616531,533.392883 228.640396,527.563721 
	C228.645157,526.399841 228.916275,525.237000 229.146591,523.430420 
	C244.831223,539.779358 259.907227,555.493958 275.178467,571.411987 
	C276.910858,569.812805 278.324463,568.507812 280.051361,566.913696 
	C253.762070,539.432007 227.696014,512.183716 201.917969,485.236481 
	C197.303864,489.571259 193.022964,493.509521 188.866089,497.574585 
	C188.111679,498.312286 187.476578,499.557648 187.446075,500.588135 
	C187.227142,507.985962 185.997040,515.763000 193.831467,520.625732 
	C194.377838,520.964844 194.764862,521.567932 195.208801,522.063660 
	C198.548935,525.793640 198.138489,534.111328 194.447250,537.577026 
	C190.339355,541.433899 190.174026,547.425171 194.066116,551.387512 
	C197.665039,555.051392 203.866898,555.137512 207.610489,551.575623 
	C211.466034,547.907227 211.802322,541.874817 207.619125,538.290833 
	C204.786713,535.864075 204.052856,533.252136 204.460693,530.011597 
	C205.234177,523.865784 203.149429,519.194031 198.358826,515.181946 
	C196.489929,513.616882 195.473328,510.630157 194.820221,508.097198 
	C193.226120,501.914703 197.321854,498.494263 200.636093,495.858124 
	C207.032791,501.822968 213.239700,507.382050 219.118240,513.269043 
	C220.428513,514.581177 221.115326,517.029236 221.178589,518.983765 
	C221.442566,527.137573 221.222916,535.306519 221.449188,543.462402 
	C221.610794,549.287354 222.413345,555.183472 215.205109,558.813843 
M567.419678,503.791443 
	C573.242249,500.466187 579.512573,499.106293 586.149536,499.912476 
	C591.706116,500.587402 594.220276,503.793488 593.811279,509.374817 
	C590.690674,509.374817 587.542847,509.208862 584.419250,509.413300 
	C579.622742,509.727295 574.699036,509.723419 570.087585,510.882416 
	C561.912964,512.936951 557.857971,518.875000 558.068176,527.030518 
	C558.267700,534.771057 563.173828,541.002441 570.979675,542.742859 
	C578.924194,544.514099 586.547241,543.772766 593.216797,538.459167 
	C593.660706,538.105530 594.280518,537.972961 594.899780,537.702026 
	C595.143494,539.421143 595.344299,540.837463 595.529419,542.143066 
	C600.780334,542.143066 605.672546,542.143066 610.286560,542.143066 
	C610.286560,529.425598 610.682556,517.094177 610.154053,504.802582 
	C609.771179,495.896301 604.415833,489.524078 595.667114,488.070221 
	C588.919189,486.948853 581.788269,487.264954 574.932556,487.966797 
	C570.392944,488.431458 566.038696,490.707703 561.061768,492.351135 
	C563.298950,497.000366 564.988708,500.512085 567.419678,503.791443 
M480.350586,490.076782 
	C479.141418,489.527222 477.962067,488.896332 476.718597,488.440338 
	C459.877411,482.264832 441.476929,490.662170 437.019653,506.536560 
	C433.478760,519.147278 438.021179,531.879761 448.432587,538.527222 
	C459.751465,545.754089 476.836151,544.860535 486.858398,536.477173 
	C487.831451,535.663208 488.618317,534.626709 489.366577,533.827148 
	C486.346619,530.760681 483.580475,527.951965 480.831207,525.160400 
	C468.945038,533.990112 455.907837,531.720032 452.628998,519.911987 
	C466.139252,519.911987 479.532593,519.911987 493.235992,519.911987 
	C494.400421,507.541016 491.433563,497.457764 480.350586,490.076782 
M280.454834,450.990387 
	C273.701111,447.414764 267.837372,448.354431 264.016113,453.624634 
	C260.635162,458.287476 260.761536,465.458954 265.564423,468.415314 
	C270.246948,471.297638 270.205933,474.897522 270.107208,479.203735 
	C269.992645,484.200623 270.072388,489.201965 270.069122,494.201385 
	C270.067474,496.692444 270.068848,499.183502 270.068848,502.902130 
	C253.738770,486.039642 238.469971,470.273041 223.283066,454.591003 
	C221.502350,456.084229 220.034332,457.315216 218.201248,458.852356 
	C244.144806,485.741302 269.858643,512.392151 295.601685,539.073303 
	C300.522736,534.210022 304.928467,529.913757 309.248535,525.532959 
	C310.019104,524.751465 310.917053,523.629639 310.936829,522.648438 
	C311.077942,515.650208 312.806274,508.127625 305.287109,503.325592 
	C304.470245,502.803955 303.845184,501.940247 303.223999,501.161194 
	C300.749786,498.058319 301.174408,490.334351 303.909241,488.129608 
	C308.646027,484.310944 309.257751,478.587646 305.402832,474.155121 
	C301.675476,469.869202 295.087280,469.571869 291.176666,473.513031 
	C287.054413,477.667480 287.137054,483.810608 291.950928,487.530701 
	C294.459778,489.469482 295.283752,491.491730 294.862061,494.293152 
	C293.993469,500.063599 295.804047,504.650757 300.540131,508.122955 
	C301.459198,508.796753 302.731567,509.809479 302.773895,510.715698 
	C302.953796,514.569397 303.579376,518.730469 302.391296,522.216675 
	C301.429718,525.038208 298.108887,527.055725 296.664856,528.563110 
	C290.379059,522.811462 284.424988,517.482422 278.653809,511.962158 
	C277.722626,511.071472 277.186737,509.332336 277.178131,507.980896 
	C277.107208,496.816620 277.133636,485.649963 277.339447,474.487854 
	C277.364746,473.115234 278.270203,471.300354 279.361420,470.479980 
	C286.631317,465.014099 287.302734,458.377014 280.454834,450.990387 
M549.099121,494.676697 
	C550.722229,492.330811 552.345276,489.984924 554.337708,487.105286 
	C549.110962,487.105286 544.909363,486.761902 540.806213,487.248291 
	C538.713806,487.496399 536.241150,488.775635 534.912170,490.389221 
	C531.610046,494.398438 528.865967,498.867310 525.653503,503.504181 
	C522.416748,498.561096 519.663025,494.205444 516.728333,489.975433 
	C515.957214,488.864014 514.662231,487.420380 513.544678,487.363159 
	C508.202271,487.089630 502.838104,487.240540 496.721558,487.240540 
	C503.269501,496.873596 509.239136,505.655914 515.286560,514.552612 
	C508.791534,523.727722 502.347351,532.831055 495.468658,542.548157 
	C500.872101,542.548157 505.185547,542.365295 509.474518,542.610596 
	C512.486755,542.782837 514.393188,541.756836 516.011230,539.230469 
	C518.939392,534.658447 522.168396,530.279053 525.519409,525.463379 
	C528.986023,530.592773 532.085327,535.309204 535.346924,539.910583 
	C536.137939,541.026489 537.425964,542.492126 538.550171,542.550537 
	C543.889526,542.828064 549.251343,542.674500 555.436279,542.674500 
	C549.144653,533.709717 543.639160,525.590393 537.808228,517.712036 
	C535.876160,515.101501 535.923462,513.337769 537.838074,510.811005 
	C541.651550,505.778259 545.112793,500.478607 549.099121,494.676697 
M254.691864,523.809814 
	C265.782379,535.096741 276.835724,546.420715 287.997742,557.636536 
	C290.003876,559.652283 291.043884,561.324158 290.292694,564.497803 
	C289.181671,569.191467 292.239960,573.960083 296.560028,575.843750 
	C301.348267,577.931702 306.952606,576.841003 310.361420,573.157593 
	C313.500214,569.765930 314.120178,564.330505 311.848938,560.116150 
	C309.438843,555.644165 304.238617,552.590393 299.787872,554.323181 
	C295.840118,555.860168 294.027740,554.096863 291.754150,551.772156 
	C264.852203,524.264771 237.944885,496.762451 210.942749,469.353577 
	C208.564178,466.939178 207.309006,464.933044 208.107361,461.235657 
	C209.192535,456.209930 206.128174,451.720978 201.395416,449.668304 
	C196.640030,447.605774 191.145477,448.842407 187.744537,452.740570 
	C184.481979,456.480042 183.947479,462.103638 186.461838,466.235901 
	C188.958115,470.338440 194.099899,472.655334 198.987808,471.138824 
	C201.961990,470.216064 203.527695,471.209961 205.416962,473.162659 
	C221.630920,489.921204 237.924820,506.602448 254.691864,523.809814 
M688.445984,508.870026 
	C694.167053,510.596527 699.967957,512.101074 705.583679,514.120544 
	C709.972656,515.698853 712.779053,519.025513 712.776733,523.920349 
	C712.774292,529.103516 710.230957,533.264709 705.311768,534.574402 
	C700.275879,535.915161 694.655701,537.164124 689.707642,536.235229 
	C682.405945,534.864563 675.472717,531.531189 668.224548,528.977905 
	C668.027405,530.351929 663.844421,532.102417 667.616211,535.384338 
	C677.389709,543.888550 700.003479,546.194580 711.230530,539.612305 
	C717.331665,536.035217 720.392578,530.686096 720.304688,523.527100 
	C720.220032,516.634644 716.931702,511.707977 710.893311,508.869354 
	C706.565369,506.834808 701.913452,505.472839 697.367920,503.922607 
	C692.501770,502.263092 687.513855,500.934784 682.722046,499.090363 
	C678.301697,497.388885 675.861389,494.018372 675.953552,489.069550 
	C676.047302,484.033844 678.374084,480.115295 683.017517,478.641602 
	C687.354370,477.265259 692.197937,476.178833 696.620056,476.687927 
	C703.057800,477.429077 709.317749,479.714935 715.948730,481.417999 
	C716.502319,480.054474 717.279236,478.140808 718.140564,476.019165 
	C705.921448,469.621307 693.645142,467.386505 680.757568,471.916748 
	C672.759888,474.728149 668.335449,481.301758 668.277283,489.396454 
	C668.219482,497.436493 671.861267,502.618103 680.146545,506.048981 
	C682.596375,507.063446 685.163452,507.794922 688.445984,508.870026 
M750.005432,524.322876 
	C745.213257,513.548035 740.155457,502.880249 735.750793,491.949310 
	C733.801758,487.112366 731.050171,486.451874 726.383728,487.835266 
	C727.205139,489.794189 727.863831,491.469238 728.601562,493.108734 
	C735.420166,508.261261 742.249146,523.409119 749.082642,538.554993 
	C751.372192,543.629700 749.876160,549.874512 745.100342,554.489197 
	C741.081604,558.372375 736.472839,558.199646 731.679871,556.141907 
	C730.657654,555.703003 729.651367,555.227051 728.453796,554.684998 
	C727.439880,556.433777 726.558411,557.954163 725.706909,559.422791 
	C735.747131,567.791992 748.403992,565.000488 753.923279,552.927368 
	C762.902710,533.285400 771.414978,513.429626 780.104431,493.655365 
	C780.945007,491.742340 781.644836,489.767456 782.426270,487.779938 
	C777.464844,486.267670 775.132751,488.028625 773.388855,492.294250 
	C768.170593,505.058563 762.548401,517.657837 757.067017,530.314209 
	C756.523804,531.568420 755.865051,532.772705 754.877197,534.776550 
	C753.070740,530.954407 751.672058,527.995056 750.005432,524.322876 
M808.610779,493.142120 
	C814.671814,494.361603 820.732910,495.581085 827.040161,496.850098 
	C827.529968,495.811584 828.291077,494.197937 829.239319,492.187439 
	C819.219421,486.699463 809.093506,484.795013 798.423401,488.892334 
	C791.874512,491.407135 788.631531,496.936310 788.968750,503.816071 
	C789.273438,510.032379 792.565979,513.857727 799.636108,515.962158 
	C802.341797,516.767517 805.143188,517.245422 807.880310,517.952576 
	C811.416260,518.866028 815.254883,519.281677 818.347351,521.012268 
	C820.587708,522.266052 823.170837,525.317139 823.157166,527.551941 
	C823.141724,530.090759 820.882507,533.204468 818.705505,534.961975 
	C816.848694,536.461060 813.752563,536.768066 811.159302,536.947632 
	C803.453979,537.480957 796.458069,535.263184 789.979553,530.133362 
	C788.852722,532.307007 787.910278,534.124878 786.835999,536.197266 
	C797.722168,543.572388 808.959900,545.486694 820.921326,541.396912 
	C827.411560,539.177856 830.789124,533.675842 830.655334,527.142700 
	C830.525024,520.775696 827.126526,516.347168 820.177063,514.175293 
	C815.901550,512.839050 811.473633,511.978760 807.097046,510.979919 
	C798.740540,509.072754 795.995667,506.957886 796.009399,502.320709 
	C796.024902,497.111023 799.190552,494.634674 808.610779,493.142120 
M977.724243,959.768066 
	C974.690857,955.129517 971.657471,950.490967 968.449036,945.584717 
	C965.012085,957.203613 957.139099,965.019104 945.111633,969.085693 
	C957.462097,972.856567 964.927307,981.089478 969.145691,994.255676 
	C972.959900,980.595520 980.963989,973.072754 992.363342,969.511658 
	C987.512817,966.341736 982.873169,963.309631 977.724243,959.768066 
M628.632874,506.885712 
	C627.198364,506.974731 625.763855,507.063751 624.238159,507.158447 
	C624.238159,511.304993 624.238159,515.091492 624.238159,519.126282 
	C634.162048,519.126282 643.932617,519.126282 653.781860,519.126282 
	C653.781860,515.032959 653.781860,511.120483 653.781860,506.887421 
	C645.541260,506.887421 637.575500,506.887421 628.632874,506.885712 
z"/>
<path fill="#F7F8F7" opacity="1.000000" stroke="none" 
	d="
M423.969910,521.999817 
	C423.971222,528.980530 423.971222,535.461243 423.971222,542.515991 
	C419.283203,542.515991 414.809967,542.739746 410.384399,542.378601 
	C409.070221,542.271423 407.659241,540.705994 406.684387,539.493713 
	C396.776764,527.173767 386.952026,514.787170 377.098358,502.423859 
	C375.995148,501.039734 374.856445,499.683990 373.083252,497.521088 
	C373.083252,512.992737 373.083252,527.504089 373.083252,542.296753 
	C367.536194,542.296753 362.424835,542.296753 356.935913,542.296753 
	C356.935913,518.481873 356.935913,494.594849 356.935913,470.284515 
	C361.190430,470.284515 365.338715,469.996002 369.411346,470.425262 
	C371.060486,470.599121 372.932983,472.027679 374.042969,473.414337 
	C383.920166,485.753662 393.648407,498.212219 403.423401,510.633392 
	C404.419464,511.899170 405.434143,513.150269 407.404541,515.613953 
	C407.404541,499.649628 407.404541,485.027283 407.404541,470.289154 
	C413.145569,470.289154 418.120056,470.289154 423.968567,470.289154 
	C423.968567,487.387909 423.968567,504.443909 423.969910,521.999817 
z"/>
<path fill="#10B6BF" opacity="1.000000" stroke="none" 
	d="
M215.430710,558.513916 
	C222.413345,555.183472 221.610794,549.287354 221.449188,543.462402 
	C221.222916,535.306519 221.442566,527.137573 221.178589,518.983765 
	C221.115326,517.029236 220.428513,514.581177 219.118240,513.269043 
	C213.239700,507.382050 207.032791,501.822968 200.636093,495.858124 
	C197.321854,498.494263 193.226120,501.914703 194.820221,508.097198 
	C195.473328,510.630157 196.489929,513.616882 198.358826,515.181946 
	C203.149429,519.194031 205.234177,523.865784 204.460693,530.011597 
	C204.052856,533.252136 204.786713,535.864075 207.619125,538.290833 
	C211.802322,541.874817 211.466034,547.907227 207.610489,551.575623 
	C203.866898,555.137512 197.665039,555.051392 194.066116,551.387512 
	C190.174026,547.425171 190.339355,541.433899 194.447250,537.577026 
	C198.138489,534.111328 198.548935,525.793640 195.208801,522.063660 
	C194.764862,521.567932 194.377838,520.964844 193.831467,520.625732 
	C185.997040,515.763000 187.227142,507.985962 187.446075,500.588135 
	C187.476578,499.557648 188.111679,498.312286 188.866089,497.574585 
	C193.022964,493.509521 197.303864,489.571259 201.917969,485.236481 
	C227.696014,512.183716 253.762070,539.432007 280.051361,566.913696 
	C278.324463,568.507812 276.910858,569.812805 275.178467,571.411987 
	C259.907227,555.493958 244.831223,539.779358 229.146591,523.430420 
	C228.916275,525.237000 228.645157,526.399841 228.640396,527.563721 
	C228.616531,533.392883 228.685944,539.222351 228.676483,545.051636 
	C228.668823,549.768372 228.062866,554.136108 233.498062,557.349915 
	C237.802307,559.894897 237.742081,567.105103 234.780838,571.416138 
	C231.784531,575.778198 225.617203,577.532898 220.508453,575.476807 
	C215.631866,573.514221 212.690109,568.574707 213.572296,563.491028 
	C213.850845,561.885803 214.646240,560.370361 215.430710,558.513916 
z"/>
<path fill="#F7F8F7" opacity="1.000000" stroke="none" 
	d="
M567.049072,503.907623 
	C564.988708,500.512085 563.298950,497.000366 561.061768,492.351135 
	C566.038696,490.707703 570.392944,488.431458 574.932556,487.966797 
	C581.788269,487.264954 588.919189,486.948853 595.667114,488.070221 
	C604.415833,489.524078 609.771179,495.896301 610.154053,504.802582 
	C610.682556,517.094177 610.286560,529.425598 610.286560,542.143066 
	C605.672546,542.143066 600.780334,542.143066 595.529419,542.143066 
	C595.344299,540.837463 595.143494,539.421143 594.899780,537.702026 
	C594.280518,537.972961 593.660706,538.105530 593.216797,538.459167 
	C586.547241,543.772766 578.924194,544.514099 570.979675,542.742859 
	C563.173828,541.002441 558.267700,534.771057 558.068176,527.030518 
	C557.857971,518.875000 561.912964,512.936951 570.087585,510.882416 
	C574.699036,509.723419 579.622742,509.727295 584.419250,509.413300 
	C587.542847,509.208862 590.690674,509.374817 593.811279,509.374817 
	C594.220276,503.793488 591.706116,500.587402 586.149536,499.912476 
	C579.512573,499.106293 573.242249,500.466187 567.049072,503.907623 
M578.295959,531.713135 
	C590.046326,533.432495 595.494202,529.131897 593.603882,519.071289 
	C589.095215,519.283691 584.406921,519.008484 579.962708,519.921326 
	C577.708801,520.384277 575.084045,522.606445 574.082764,524.722168 
	C572.761841,527.513489 574.409668,530.142822 578.295959,531.713135 
z"/>
<path fill="#F7F8F7" opacity="1.000000" stroke="none" 
	d="
M480.662964,490.268188 
	C491.433563,497.457764 494.400421,507.541016 493.235992,519.911987 
	C479.532593,519.911987 466.139252,519.911987 452.628998,519.911987 
	C455.907837,531.720032 468.945038,533.990112 480.831207,525.160400 
	C483.580475,527.951965 486.346619,530.760681 489.366577,533.827148 
	C488.618317,534.626709 487.831451,535.663208 486.858398,536.477173 
	C476.836151,544.860535 459.751465,545.754089 448.432587,538.527222 
	C438.021179,531.879761 433.478760,519.147278 437.019653,506.536560 
	C441.476929,490.662170 459.877411,482.264832 476.718597,488.440338 
	C477.962067,488.896332 479.141418,489.527222 480.662964,490.268188 
M474.158325,502.271637 
	C464.772614,495.819611 453.893951,499.690033 452.768005,509.743683 
	C461.097870,509.743683 469.439636,509.743683 478.654205,509.743683 
	C477.093079,507.009766 475.893127,504.908325 474.158325,502.271637 
z"/>
<path fill="#10B6BF" opacity="1.000000" stroke="none" 
	d="
M280.755615,451.207947 
	C287.302734,458.377014 286.631317,465.014099 279.361420,470.479980 
	C278.270203,471.300354 277.364746,473.115234 277.339447,474.487854 
	C277.133636,485.649963 277.107208,496.816620 277.178131,507.980896 
	C277.186737,509.332336 277.722626,511.071472 278.653809,511.962158 
	C284.424988,517.482422 290.379059,522.811462 296.664856,528.563110 
	C298.108887,527.055725 301.429718,525.038208 302.391296,522.216675 
	C303.579376,518.730469 302.953796,514.569397 302.773895,510.715698 
	C302.731567,509.809479 301.459198,508.796753 300.540131,508.122955 
	C295.804047,504.650757 293.993469,500.063599 294.862061,494.293152 
	C295.283752,491.491730 294.459778,489.469482 291.950928,487.530701 
	C287.137054,483.810608 287.054413,477.667480 291.176666,473.513031 
	C295.087280,469.571869 301.675476,469.869202 305.402832,474.155121 
	C309.257751,478.587646 308.646027,484.310944 303.909241,488.129608 
	C301.174408,490.334351 300.749786,498.058319 303.223999,501.161194 
	C303.845184,501.940247 304.470245,502.803955 305.287109,503.325592 
	C312.806274,508.127625 311.077942,515.650208 310.936829,522.648438 
	C310.917053,523.629639 310.019104,524.751465 309.248535,525.532959 
	C304.928467,529.913757 300.522736,534.210022 295.601685,539.073303 
	C269.858643,512.392151 244.144806,485.741302 218.201248,458.852356 
	C220.034332,457.315216 221.502350,456.084229 223.283066,454.591003 
	C238.469971,470.273041 253.738770,486.039642 270.068848,502.902130 
	C270.068848,499.183502 270.067474,496.692444 270.069122,494.201385 
	C270.072388,489.201965 269.992645,484.200623 270.107208,479.203735 
	C270.205933,474.897522 270.246948,471.297638 265.564423,468.415314 
	C260.761536,465.458954 260.635162,458.287476 264.016113,453.624634 
	C267.837372,448.354431 273.701111,447.414764 280.755615,451.207947 
z"/>
<path fill="#F7F8F7" opacity="1.000000" stroke="none" 
	d="
M548.909302,494.982971 
	C545.112793,500.478607 541.651550,505.778259 537.838074,510.811005 
	C535.923462,513.337769 535.876160,515.101501 537.808228,517.712036 
	C543.639160,525.590393 549.144653,533.709717 555.436279,542.674500 
	C549.251343,542.674500 543.889526,542.828064 538.550171,542.550537 
	C537.425964,542.492126 536.137939,541.026489 535.346924,539.910583 
	C532.085327,535.309204 528.986023,530.592773 525.519409,525.463379 
	C522.168396,530.279053 518.939392,534.658447 516.011230,539.230469 
	C514.393188,541.756836 512.486755,542.782837 509.474518,542.610596 
	C505.185547,542.365295 500.872101,542.548157 495.468658,542.548157 
	C502.347351,532.831055 508.791534,523.727722 515.286560,514.552612 
	C509.239136,505.655914 503.269501,496.873596 496.721558,487.240540 
	C502.838104,487.240540 508.202271,487.089630 513.544678,487.363159 
	C514.662231,487.420380 515.957214,488.864014 516.728333,489.975433 
	C519.663025,494.205444 522.416748,498.561096 525.653503,503.504181 
	C528.865967,498.867310 531.610046,494.398438 534.912170,490.389221 
	C536.241150,488.775635 538.713806,487.496399 540.806213,487.248291 
	C544.909363,486.761902 549.110962,487.105286 554.337708,487.105286 
	C552.345276,489.984924 550.722229,492.330811 548.909302,494.982971 
z"/>
<path fill="#10B6BF" opacity="1.000000" stroke="none" 
	d="
M254.443359,523.558289 
	C237.924820,506.602448 221.630920,489.921204 205.416962,473.162659 
	C203.527695,471.209961 201.961990,470.216064 198.987808,471.138824 
	C194.099899,472.655334 188.958115,470.338440 186.461838,466.235901 
	C183.947479,462.103638 184.481979,456.480042 187.744537,452.740570 
	C191.145477,448.842407 196.640030,447.605774 201.395416,449.668304 
	C206.128174,451.720978 209.192535,456.209930 208.107361,461.235657 
	C207.309006,464.933044 208.564178,466.939178 210.942749,469.353577 
	C237.944885,496.762451 264.852203,524.264771 291.754150,551.772156 
	C294.027740,554.096863 295.840118,555.860168 299.787872,554.323181 
	C304.238617,552.590393 309.438843,555.644165 311.848938,560.116150 
	C314.120178,564.330505 313.500214,569.765930 310.361420,573.157593 
	C306.952606,576.841003 301.348267,577.931702 296.560028,575.843750 
	C292.239960,573.960083 289.181671,569.191467 290.292694,564.497803 
	C291.043884,561.324158 290.003876,559.652283 287.997742,557.636536 
	C276.835724,546.420715 265.782379,535.096741 254.443359,523.558289 
z"/>
<path fill="#F7F8F7" opacity="1.000000" stroke="none" 
	d="
M688.061401,508.763031 
	C685.163452,507.794922 682.596375,507.063446 680.146545,506.048981 
	C671.861267,502.618103 668.219482,497.436493 668.277283,489.396454 
	C668.335449,481.301758 672.759888,474.728149 680.757568,471.916748 
	C693.645142,467.386505 705.921448,469.621307 718.140564,476.019165 
	C717.279236,478.140808 716.502319,480.054474 715.948730,481.417999 
	C709.317749,479.714935 703.057800,477.429077 696.620056,476.687927 
	C692.197937,476.178833 687.354370,477.265259 683.017517,478.641602 
	C678.374084,480.115295 676.047302,484.033844 675.953552,489.069550 
	C675.861389,494.018372 678.301697,497.388885 682.722046,499.090363 
	C687.513855,500.934784 692.501770,502.263092 697.367920,503.922607 
	C701.913452,505.472839 706.565369,506.834808 710.893311,508.869354 
	C716.931702,511.707977 720.220032,516.634644 720.304688,523.527100 
	C720.392578,530.686096 717.331665,536.035217 711.230530,539.612305 
	C700.003479,546.194580 677.389709,543.888550 667.616211,535.384338 
	C663.844421,532.102417 668.027405,530.351929 668.224548,528.977905 
	C675.472717,531.531189 682.405945,534.864563 689.707642,536.235229 
	C694.655701,537.164124 700.275879,535.915161 705.311768,534.574402 
	C710.230957,533.264709 712.774292,529.103516 712.776733,523.920349 
	C712.779053,519.025513 709.972656,515.698853 705.583679,514.120544 
	C699.967957,512.101074 694.167053,510.596527 688.061401,508.763031 
z"/>
<path fill="#F7F8F7" opacity="1.000000" stroke="none" 
	d="
M750.139404,524.679321 
	C751.672058,527.995056 753.070740,530.954407 754.877197,534.776550 
	C755.865051,532.772705 756.523804,531.568420 757.067017,530.314209 
	C762.548401,517.657837 768.170593,505.058563 773.388855,492.294250 
	C775.132751,488.028625 777.464844,486.267670 782.426270,487.779938 
	C781.644836,489.767456 780.945007,491.742340 780.104431,493.655365 
	C771.414978,513.429626 762.902710,533.285400 753.923279,552.927368 
	C748.403992,565.000488 735.747131,567.791992 725.706909,559.422791 
	C726.558411,557.954163 727.439880,556.433777 728.453796,554.684998 
	C729.651367,555.227051 730.657654,555.703003 731.679871,556.141907 
	C736.472839,558.199646 741.081604,558.372375 745.100342,554.489197 
	C749.876160,549.874512 751.372192,543.629700 749.082642,538.554993 
	C742.249146,523.409119 735.420166,508.261261 728.601562,493.108734 
	C727.863831,491.469238 727.205139,489.794189 726.383728,487.835266 
	C731.050171,486.451874 733.801758,487.112366 735.750793,491.949310 
	C740.155457,502.880249 745.213257,513.548035 750.139404,524.679321 
z"/>
<path fill="#F7F8F7" opacity="1.000000" stroke="none" 
	d="
M808.146545,493.165863 
	C799.190552,494.634674 796.024902,497.111023 796.009399,502.320709 
	C795.995667,506.957886 798.740540,509.072754 807.097046,510.979919 
	C811.473633,511.978760 815.901550,512.839050 820.177063,514.175293 
	C827.126526,516.347168 830.525024,520.775696 830.655334,527.142700 
	C830.789124,533.675842 827.411560,539.177856 820.921326,541.396912 
	C808.959900,545.486694 797.722168,543.572388 786.835999,536.197266 
	C787.910278,534.124878 788.852722,532.307007 789.979553,530.133362 
	C796.458069,535.263184 803.453979,537.480957 811.159302,536.947632 
	C813.752563,536.768066 816.848694,536.461060 818.705505,534.961975 
	C820.882507,533.204468 823.141724,530.090759 823.157166,527.551941 
	C823.170837,525.317139 820.587708,522.266052 818.347351,521.012268 
	C815.254883,519.281677 811.416260,518.866028 807.880310,517.952576 
	C805.143188,517.245422 802.341797,516.767517 799.636108,515.962158 
	C792.565979,513.857727 789.273438,510.032379 788.968750,503.816071 
	C788.631531,496.936310 791.874512,491.407135 798.423401,488.892334 
	C809.093506,484.795013 819.219421,486.699463 829.239319,492.187439 
	C828.291077,494.197937 827.529968,495.811584 827.040161,496.850098 
	C820.732910,495.581085 814.671814,494.361603 808.146545,493.165863 
z"/>
<path fill="#10B6BF" opacity="1.000000" stroke="none" 
	d="
M977.978882,960.022827 
	C982.873169,963.309631 987.512817,966.341736 992.363342,969.511658 
	C980.963989,973.072754 972.959900,980.595520 969.145691,994.255676 
	C964.927307,981.089478 957.462097,972.856567 945.111633,969.085693 
	C957.139099,965.019104 965.012085,957.203613 968.449036,945.584717 
	C971.657471,950.490967 974.690857,955.129517 977.978882,960.022827 
z"/>
<path fill="#F7F8F7" opacity="1.000000" stroke="none" 
	d="
M629.121338,506.886566 
	C637.575500,506.887421 645.541260,506.887421 653.781860,506.887421 
	C653.781860,511.120483 653.781860,515.032959 653.781860,519.126282 
	C643.932617,519.126282 634.162048,519.126282 624.238159,519.126282 
	C624.238159,515.091492 624.238159,511.304993 624.238159,507.158447 
	C625.763855,507.063751 627.198364,506.974731 629.121338,506.886566 
z"/>
<path fill="#030303" opacity="1.000000" stroke="none" 
	d="
M577.917908,531.525757 
	C574.409668,530.142822 572.761841,527.513489 574.082764,524.722168 
	C575.084045,522.606445 577.708801,520.384277 579.962708,519.921326 
	C584.406921,519.008484 589.095215,519.283691 593.603882,519.071289 
	C595.494202,529.131897 590.046326,533.432495 577.917908,531.525757 
z"/>
<path fill="#030303" opacity="1.000000" stroke="none" 
	d="
M474.425751,502.539276 
	C475.893127,504.908325 477.093079,507.009766 478.654205,509.743683 
	C469.439636,509.743683 461.097870,509.743683 452.768005,509.743683 
	C453.893951,499.690033 464.772614,495.819611 474.425751,502.539276 
z"/>
</svg>